General
Unique ID                                : 210847093297238061761882449632277908610 (0x9E9FAC4E1B5AC16ED5B3065A9A7D4C82)
Complete name                            : The.Hobbit.The.Battle.of.the.Five.Armies.2014.Extended.Cut.UHD.BluRay.2160p.TrueHD.Atmos.7.1.DV.HEVC.REMUX-FraMeSToR.mkv
Format                                   : Matroska
Format version                           : Version 4
File size                                : 60.1 GiB
Duration                                 : 2 h 44 min
Overall bit rate mode                    : Variable
Overall bit rate                         : 52.4 Mb/s
Movie name                               : The Hobbit: The Battle of the Five Armies (2014) Extended Cut DV
Encoded date                             : UTC 2020-11-29 23:46:09
Writing application                      : mkvmerge v51.0.0 ('I Wish') 64-bit
Writing library                          : libebml v1.4.0 + libmatroska v1.6.2
IMDB                                     : tt2310332
TMDB                                     : movie/122917

Video
ID                                       : 1
ID in the original source medium         : 4113 (0x1011)
Format                                   : HEVC
Format/Info                              : High Efficiency Video Coding
Format profile                           : Main 10@L5.1@High
HDR format                               : Dolby Vision, Version 1.0, dvhe.07.06, BL+EL+RPU, Blu-ray compatible / SMPTE ST 2086, HDR10 compatible
Codec ID                                 : V_MPEGH/ISO/HEVC
Duration                                 : 2 h 44 min
Bit rate                                 : 47.9 Mb/s
Width                                    : 3 840 pixels
Height                                   : 2 160 pixels
Display aspect ratio                     : 16:9
Frame rate mode                          : Constant
Frame rate                               : 23.976 (24000/1001) FPS
Color space                              : YUV
Chroma subsampling                       : 4:2:0 (Type 2)
Bit depth                                : 10 bits
Bits/(Pixel*Frame)                       : 0.241
Stream size                              : 54.9 GiB (91%)
Default                                  : Yes
Forced                                   : No
Color range                              : Limited
Color primaries                          : BT.2020
Transfer characteristics                 : PQ
Matrix coefficients                      : BT.2020 non-constant
Mastering display color primaries        : Display P3
Mastering display luminance              : min: 0.0050 cd/m2, max: 4000 cd/m2
Maximum Content Light Level              : 1163 cd/m2
Maximum Frame-Average Light Level        : 162 cd/m2
Original source medium                   : Blu-ray

Audio #1
ID                                       : 2
Format                                   : MLP FBA 16-ch
Format/Info                              : Meridian Lossless Packing FBA with 16-channel presentation
Commercial name                          : Dolby TrueHD with Dolby Atmos
Codec ID                                 : A_TRUEHD
Duration                                 : 2 h 44 min
Bit rate mode                            : Variable
Bit rate                                 : 3 198 kb/s
Maximum bit rate                         : 4 902 kb/s
Channel(s)                               : 8 channels
Channel layout                           : L R C LFE Ls Rs Lb Rb
Sampling rate                            : 48.0 kHz
Frame rate                               : 1 200.000 FPS (40 SPF)
Compression mode                         : Lossless
Stream size                              : 3.66 GiB (6%)
Title                                    : TrueHD Atmos 7.1
Language                                 : English
Default                                  : Yes
Forced                                   : No
Number of dynamic objects                : 11
Bed channel count                        : 1 channel
Bed channel configuration                : LFE

Audio #2
ID                                       : 3
Format                                   : AC-3
Format/Info                              : Audio Coding 3
Commercial name                          : Dolby Digital
Codec ID                                 : A_AC3
Duration                                 : 2 h 44 min
Bit rate mode                            : Constant
Bit rate                                 : 448 kb/s
Channel(s)                               : 6 channels
Channel layout                           : L R C LFE Ls Rs
Sampling rate                            : 48.0 kHz
Frame rate                               : 31.250 FPS (1536 SPF)
Compression mode                         : Lossy
Stream size                              : 526 MiB (1%)
Title                                    : AC-3 5.1-EX
Language                                 : English
Service kind                             : Complete Main
Default                                  : No
Forced                                   : No

Audio #3
ID                                       : 4
Format                                   : AC-3
Format/Info                              : Audio Coding 3
Commercial name                          : Dolby Digital
Codec ID                                 : A_AC3
Duration                                 : 2 h 44 min
Bit rate mode                            : Constant
Bit rate                                 : 192 kb/s
Channel(s)                               : 2 channels
Channel layout                           : L R
Sampling rate                            : 48.0 kHz
Frame rate                               : 31.250 FPS (1536 SPF)
Compression mode                         : Lossy
Stream size                              : 225 MiB (0%)
Title                                    : Commentary by director Peter Jackson and writer Philippa Boyens
Language                                 : English
Service kind                             : Complete Main
Default                                  : No
Forced                                   : No

Text #1
ID                                       : 5
Format                                   : PGS
Codec ID                                 : S_HDMV/PGS
Codec ID/Info                            : Picture based subtitle format used on BDs/HD-DVDs
Duration                                 : 2 h 29 min
Bit rate                                 : 21.2 kb/s
Count of elements                        : 3422
Stream size                              : 22.7 MiB (0%)
Title                                    : English (SDH)
Language                                 : English
Default                                  : No
Forced                                   : No

Text #2
ID                                       : 6
Format                                   : PGS
Codec ID                                 : S_HDMV/PGS
Codec ID/Info                            : Picture based subtitle format used on BDs/HD-DVDs
Duration                                 : 2 h 42 min
Bit rate                                 : 8 511 b/s
Count of elements                        : 3098
Stream size                              : 9.91 MiB (0%)
Title                                    : Arabic
Language                                 : Arabic
Default                                  : No
Forced                                   : No

Text #3
ID                                       : 7
Format                                   : PGS
Codec ID                                 : S_HDMV/PGS
Codec ID/Info                            : Picture based subtitle format used on BDs/HD-DVDs
Duration                                 : 2 h 43 min
Bit rate                                 : 14.7 kb/s
Count of elements                        : 3100
Stream size                              : 17.1 MiB (0%)
Title                                    : Chinese (Simplified)
Language                                 : Chinese
Default                                  : No
Forced                                   : No

Text #4
ID                                       : 8
Format                                   : PGS
Codec ID                                 : S_HDMV/PGS
Codec ID/Info                            : Picture based subtitle format used on BDs/HD-DVDs
Duration                                 : 2 h 43 min
Bit rate                                 : 15.3 kb/s
Count of elements                        : 3150
Stream size                              : 17.8 MiB (0%)
Title                                    : Chinese (Traditional)
Language                                 : Chinese
Default                                  : No
Forced                                   : No

Text #5
ID                                       : 9
Format                                   : PGS
Codec ID                                 : S_HDMV/PGS
Codec ID/Info                            : Picture based subtitle format used on BDs/HD-DVDs
Duration                                 : 2 h 43 min
Bit rate                                 : 15.8 kb/s
Count of elements                        : 3086
Stream size                              : 18.4 MiB (0%)
Title                                    : Croatian
Language                                 : Croatian
Default                                  : No
Forced                                   : No

Text #6
ID                                       : 10
Format                                   : PGS
Codec ID                                 : S_HDMV/PGS
Codec ID/Info                            : Picture based subtitle format used on BDs/HD-DVDs
Duration                                 : 2 h 43 min
Bit rate                                 : 14.0 kb/s
Count of elements                        : 3086
Stream size                              : 16.3 MiB (0%)
Title                                    : Czech
Language                                 : Czech
Default                                  : No
Forced                                   : No

Text #7
ID                                       : 11
Format                                   : PGS
Codec ID                                 : S_HDMV/PGS
Codec ID/Info                            : Picture based subtitle format used on BDs/HD-DVDs
Duration                                 : 2 h 43 min
Bit rate                                 : 15.0 kb/s
Count of elements                        : 3102
Stream size                              : 17.5 MiB (0%)
Title                                    : Danish
Language                                 : Danish
Default                                  : No
Forced                                   : No

Text #8
ID                                       : 12
Format                                   : PGS
Codec ID                                 : S_HDMV/PGS
Codec ID/Info                            : Picture based subtitle format used on BDs/HD-DVDs
Duration                                 : 2 h 42 min
Bit rate                                 : 15.9 kb/s
Count of elements                        : 2510
Stream size                              : 18.5 MiB (0%)
Title                                    : Dutch
Language                                 : Dutch
Default                                  : No
Forced                                   : No

Text #9
ID                                       : 13
Format                                   : PGS
Codec ID                                 : S_HDMV/PGS
Codec ID/Info                            : Picture based subtitle format used on BDs/HD-DVDs
Duration                                 : 2 h 43 min
Bit rate                                 : 14.2 kb/s
Count of elements                        : 3104
Stream size                              : 16.5 MiB (0%)
Title                                    : Estonian
Language                                 : Estonian
Default                                  : No
Forced                                   : No

Text #10
ID                                       : 14
Format                                   : PGS
Codec ID                                 : S_HDMV/PGS
Codec ID/Info                            : Picture based subtitle format used on BDs/HD-DVDs
Duration                                 : 2 h 43 min
Bit rate                                 : 14.7 kb/s
Count of elements                        : 2962
Stream size                              : 17.2 MiB (0%)
Title                                    : Finnish
Language                                 : Finnish
Default                                  : No
Forced                                   : No

Text #11
ID                                       : 15
Format                                   : PGS
Codec ID                                 : S_HDMV/PGS
Codec ID/Info                            : Picture based subtitle format used on BDs/HD-DVDs
Duration                                 : 2 h 43 min
Bit rate                                 : 15.7 kb/s
Count of elements                        : 2876
Stream size                              : 18.3 MiB (0%)
Title                                    : French
Language                                 : French
Default                                  : No
Forced                                   : No

Text #12
ID                                       : 16
Format                                   : PGS
Codec ID                                 : S_HDMV/PGS
Codec ID/Info                            : Picture based subtitle format used on BDs/HD-DVDs
Duration                                 : 2 h 42 min
Bit rate                                 : 22.1 kb/s
Count of elements                        : 3544
Stream size                              : 25.8 MiB (0%)
Title                                    : German (SDH)
Language                                 : German
Default                                  : No
Forced                                   : No

Text #13
ID                                       : 17
Format                                   : PGS
Codec ID                                 : S_HDMV/PGS
Codec ID/Info                            : Picture based subtitle format used on BDs/HD-DVDs
Duration                                 : 2 h 43 min
Bit rate                                 : 16.5 kb/s
Count of elements                        : 3078
Stream size                              : 19.2 MiB (0%)
Title                                    : Greek
Language                                 : Greek
Default                                  : No
Forced                                   : No

Text #14
ID                                       : 18
Format                                   : PGS
Codec ID                                 : S_HDMV/PGS
Codec ID/Info                            : Picture based subtitle format used on BDs/HD-DVDs
Duration                                 : 2 h 43 min
Bit rate                                 : 11.8 kb/s
Count of elements                        : 3086
Stream size                              : 13.7 MiB (0%)
Title                                    : Hebrew
Language                                 : Hebrew
Default                                  : No
Forced                                   : No

Text #15
ID                                       : 19
Format                                   : PGS
Codec ID                                 : S_HDMV/PGS
Codec ID/Info                            : Picture based subtitle format used on BDs/HD-DVDs
Duration                                 : 2 h 43 min
Bit rate                                 : 16.6 kb/s
Count of elements                        : 3102
Stream size                              : 19.4 MiB (0%)
Title                                    : Hungarian
Language                                 : Hungarian
Default                                  : No
Forced                                   : No

Text #16
ID                                       : 20
Format                                   : PGS
Codec ID                                 : S_HDMV/PGS
Codec ID/Info                            : Picture based subtitle format used on BDs/HD-DVDs
Duration                                 : 2 h 42 min
Bit rate                                 : 16.4 kb/s
Count of elements                        : 3094
Stream size                              : 19.0 MiB (0%)
Title                                    : Icelandic
Language                                 : Icelandic
Default                                  : No
Forced                                   : No

Text #17
ID                                       : 21
Format                                   : PGS
Codec ID                                 : S_HDMV/PGS
Codec ID/Info                            : Picture based subtitle format used on BDs/HD-DVDs
Duration                                 : 2 h 43 min
Bit rate                                 : 20.0 kb/s
Count of elements                        : 3568
Stream size                              : 23.3 MiB (0%)
Title                                    : Italian (SDH)
Language                                 : Italian
Default                                  : No
Forced                                   : No

Text #18
ID                                       : 22
Format                                   : PGS
Codec ID                                 : S_HDMV/PGS
Codec ID/Info                            : Picture based subtitle format used on BDs/HD-DVDs
Duration                                 : 2 h 33 min
Bit rate                                 : 17.1 kb/s
Count of elements                        : 3827
Stream size                              : 18.9 MiB (0%)
Title                                    : Japanese
Language                                 : Japanese
Default                                  : No
Forced                                   : No

Text #19
ID                                       : 23
Format                                   : PGS
Codec ID                                 : S_HDMV/PGS
Codec ID/Info                            : Picture based subtitle format used on BDs/HD-DVDs
Duration                                 : 2 h 43 min
Bit rate                                 : 12.1 kb/s
Count of elements                        : 3074
Stream size                              : 14.1 MiB (0%)
Title                                    : Korean
Language                                 : Korean
Default                                  : No
Forced                                   : No

Text #20
ID                                       : 24
Format                                   : PGS
Codec ID                                 : S_HDMV/PGS
Codec ID/Info                            : Picture based subtitle format used on BDs/HD-DVDs
Duration                                 : 2 h 43 min
Bit rate                                 : 15.5 kb/s
Count of elements                        : 3076
Stream size                              : 18.1 MiB (0%)
Title                                    : Norwegian
Language                                 : Norwegian
Default                                  : No
Forced                                   : No

Text #21
ID                                       : 25
Format                                   : PGS
Codec ID                                 : S_HDMV/PGS
Codec ID/Info                            : Picture based subtitle format used on BDs/HD-DVDs
Duration                                 : 2 h 43 min
Bit rate                                 : 14.4 kb/s
Count of elements                        : 3052
Stream size                              : 16.8 MiB (0%)
Title                                    : Polish
Language                                 : Polish
Default                                  : No
Forced                                   : No

Text #22
ID                                       : 26
Format                                   : PGS
Codec ID                                 : S_HDMV/PGS
Codec ID/Info                            : Picture based subtitle format used on BDs/HD-DVDs
Duration                                 : 2 h 43 min
Bit rate                                 : 17.0 kb/s
Count of elements                        : 3100
Stream size                              : 19.9 MiB (0%)
Title                                    : Portuguese (Iberian)
Language                                 : Portuguese
Default                                  : No
Forced                                   : No

Text #23
ID                                       : 27
Format                                   : PGS
Codec ID                                 : S_HDMV/PGS
Codec ID/Info                            : Picture based subtitle format used on BDs/HD-DVDs
Duration                                 : 2 h 43 min
Bit rate                                 : 15.7 kb/s
Count of elements                        : 3100
Stream size                              : 18.3 MiB (0%)
Title                                    : Romanian
Language                                 : Romanian
Default                                  : No
Forced                                   : No

Text #24
ID                                       : 28
Format                                   : PGS
Codec ID                                 : S_HDMV/PGS
Codec ID/Info                            : Picture based subtitle format used on BDs/HD-DVDs
Duration                                 : 2 h 43 min
Bit rate                                 : 13.5 kb/s
Count of elements                        : 3102
Stream size                              : 15.8 MiB (0%)
Title                                    : Russian
Language                                 : Russian
Default                                  : No
Forced                                   : No

Text #25
ID                                       : 29
Format                                   : PGS
Codec ID                                 : S_HDMV/PGS
Codec ID/Info                            : Picture based subtitle format used on BDs/HD-DVDs
Duration                                 : 2 h 43 min
Bit rate                                 : 16.0 kb/s
Count of elements                        : 2956
Stream size                              : 18.6 MiB (0%)
Title                                    : Spanish (Castilian)
Language                                 : Spanish
Default                                  : No
Forced                                   : No

Text #26
ID                                       : 30
Format                                   : PGS
Codec ID                                 : S_HDMV/PGS
Codec ID/Info                            : Picture based subtitle format used on BDs/HD-DVDs
Duration                                 : 2 h 43 min
Bit rate                                 : 17.6 kb/s
Count of elements                        : 3086
Stream size                              : 20.5 MiB (0%)
Title                                    : Spanish (Latin American)
Language                                 : Spanish
Default                                  : No
Forced                                   : No

Text #27
ID                                       : 31
Format                                   : PGS
Codec ID                                 : S_HDMV/PGS
Codec ID/Info                            : Picture based subtitle format used on BDs/HD-DVDs
Duration                                 : 2 h 42 min
Bit rate                                 : 15.1 kb/s
Count of elements                        : 2974
Stream size                              : 17.5 MiB (0%)
Title                                    : Swedish
Language                                 : Swedish
Default                                  : No
Forced                                   : No

Text #28
ID                                       : 32
Format                                   : PGS
Codec ID                                 : S_HDMV/PGS
Codec ID/Info                            : Picture based subtitle format used on BDs/HD-DVDs
Duration                                 : 2 h 43 min
Bit rate                                 : 15.0 kb/s
Count of elements                        : 3090
Stream size                              : 17.5 MiB (0%)
Title                                    : Thai
Language                                 : Thai
Default                                  : No
Forced                                   : No

Text #29
ID                                       : 33
Format                                   : PGS
Codec ID                                 : S_HDMV/PGS
Codec ID/Info                            : Picture based subtitle format used on BDs/HD-DVDs
Duration                                 : 2 h 43 min
Bit rate                                 : 16.2 kb/s
Count of elements                        : 3098
Stream size                              : 18.9 MiB (0%)
Title                                    : Turkish
Language                                 : Turkish
Default                                  : No
Forced                                   : No

Text #30
ID                                       : 34
Format                                   : PGS
Codec ID                                 : S_HDMV/PGS
Codec ID/Info                            : Picture based subtitle format used on BDs/HD-DVDs
Duration                                 : 2 h 43 min
Bit rate                                 : 54.6 kb/s
Count of elements                        : 6204
Stream size                              : 64.0 MiB (0%)
Title                                    : Chinese (Simplified) (Commentary)
Language                                 : Chinese
Default                                  : No
Forced                                   : No

Text #31
ID                                       : 35
Format                                   : PGS
Codec ID                                 : S_HDMV/PGS
Codec ID/Info                            : Picture based subtitle format used on BDs/HD-DVDs
Duration                                 : 2 h 43 min
Bit rate                                 : 56.8 kb/s
Count of elements                        : 6168
Stream size                              : 66.6 MiB (0%)
Title                                    : French (Commentary)
Language                                 : French
Default                                  : No
Forced                                   : No

Text #32
ID                                       : 36
Format                                   : PGS
Codec ID                                 : S_HDMV/PGS
Codec ID/Info                            : Picture based subtitle format used on BDs/HD-DVDs
Duration                                 : 2 h 43 min
Bit rate                                 : 53.5 kb/s
Count of elements                        : 6274
Stream size                              : 62.7 MiB (0%)
Title                                    : German (SDH) (Commentary)
Language                                 : German
Default                                  : No
Forced                                   : No

Menu
00:00:00.000                             : en:1. Fire and Water
00:05:12.354                             : en:2. Bard the Dragon-Slayer
00:12:47.016                             : en:3. Dungeons of the Dark Lord
00:13:19.257                             : en:4. Shores of the Long Lake
00:18:57.386                             : en:5. Not at Home
00:23:42.129                             : en:6. "Others Will Now Look to the Mountain"
00:24:56.120                             : en:7. Legions of the Defiler
00:26:04.521                             : en:8. The Mark of Gundabad
00:27:32.985                             : en:9. Attack on Dol Guldur
00:35:45.643                             : en:10. "Summon our Friends"
00:36:41.241                             : en:11. The King's Jewel
00:40:41.856                             : en:12. The Ruins of Dale
00:42:01.102                             : en:13. Erebor Fortified
00:43:11.714                             : en:14. The Elvenking's Aid
00:46:16.107                             : en:15. The Gathering of the Clouds
00:51:27.626                             : en:16. A Token of Friendship
00:54:57.920                             : en:17. The Shadow of Gundabad
00:56:14.788                             : en:18. "The Last Move in a Master Plan"
00:58:31.258                             : en:19. Bolg of the North
01:00:26.915                             : en:20. The Night Watch
01:02:43.551                             : en:21. A Thief in the Night
01:06:10.133                             : en:22. An Honest Burglar
01:12:23.256                             : en:23. Dain Ironfoot
01:17:22.513                             : en:24. The Clouds Burst
01:20:36.290                             : en:25. The Battle at Dale
01:24:57.175                             : en:26. The Darkest Hour
01:28:41.733                             : en:27. Dragon-Sickness
01:30:52.238                             : en:28. The Return of Thorin Oakenshield
01:33:02.118                             : en:29. Sons of Durin
01:35:12.790                             : en:30. "To the King!"
01:38:32.448                             : en:31. A Call to Arms
01:39:42.852                             : en:32. Thorin's Plan
01:41:00.554                             : en:33. The War Chariot
01:45:03.464                             : en:34. Courage and Cowardice
01:47:13.594                             : en:35. The Fifth Army
01:49:05.247                             : en:36. Scouting Ravenhill
01:50:02.971                             : en:37. Blood of the Eldar
01:52:59.564                             : en:38. An Unforeseen Remedy
01:53:51.241                             : en:39. The Fallen
01:57:15.195                             : en:40. The Battle at Ravenhill
02:05:38.531                             : en:41. To the Death
02:12:07.002                             : en:42. Parting in Friendship
02:15:26.201                             : en:43. The Sorrow of Elves
02:18:32.471                             : en:44. Eyes That Fire and Sword Have Seen
02:20:07.399                             : en:45. King Under The Mountain
02:22:27.164                             : en:46. The Return Journey
02:26:11.554                             : en:47. The Last Stage
02:30:54.420                             : en:48. Credits
